ffmpeg started on 2025-05-29 at 16:47:03
Report written to "D:\Convert\FFMetrics\reports\ssim_report-6.txt"
Log level: 32
Command line:
ffmpeg -hide_banner -nostdin -i "G:\\\xc0\xed\xe8\xec\xe5\\\xce\xed\xe3\xee\xe8\xed\xe3\xe8\\!_36_\xce\xf1\xe5\xed\xfc_2024\\JamClub\\\xd5\xe0\xed\xe0\xea\xee, \xef\xf0\xe8\xe7\xf0\xe0\xea \xf1 \xe2\xed\xe5\xea\xeb\xe0\xf1\xf1\xed\xfb\xec\xe8 \xe8\xf1\xf2\xee\xf0\xe8\xff\xec\xe8 [\xd2\xc2-2]\\JamClub_Houkago_Shounen_Hanako_kun_Zoku_hen_03_1080p_HEVC.mkv" -i "G:\\\xc0\xed\xe8\xec\xe5\\\xce\xed\xe3\xee\xe8\xed\xe3\xe8\\!_36_\xce\xf1\xe5\xed\xfc_2024\\JamClub\\\xd5\xe0\xed\xe0\xea\xee, \xef\xf0\xe8\xe7\xf0\xe0\xea \xf1 \xe2\xed\xe5\xea\xeb\xe0\xf1\xf1\xed\xfb\xec\xe8 \xe8\xf1\xf2\xee\xf0\xe8\xff\xec\xe8 [\xd2\xc2-2]\\JamClub_Houkago_Shounen_Hanako_kun_Zoku_hen_03_1080p.mp4" -lavfi "[0:v]settb=AVTB,setpts=PTS-STARTPTS,format=pix_fmts=yuv420p10,fps=24000/1001,scale=1920:1080:flags=bicubic[main];[1:v]settb=AVTB,setpts=PTS-STARTPTS,format=pix_fmts=yuv420p,fps=24000/1001,scale=1920:1080:flags=bicubic[ref];[main][ref]ssim=eof_action=endall:stats_file='D\\:/Convert/FFMetrics/logs/ssim_logfile-6.txt'" -f null -
Input #0, matroska,webm, from 'G:\Аниме\Онгоинги\!_36_Осень_2024\JamClub\Ханако, призрак с внеклассными историями [ТВ-2]\JamClub_Houkago_Shounen_Hanako_kun_Zoku_hen_03_1080p_HEVC.mkv':
  Metadata:
    COMPATIBLE_BRANDS: isomiso2avc1mp41
    MAJOR_BRAND     : isom
    MINOR_VERSION   : 512
    ENCODER         : Lavf61.7.100
  Duration: 00:10:24.00, start: -0.001000, bitrate: 1687 kb/s
  Stream #0:0: Video: hevc (Main 10), yuv420p10le(tv, bt709, progressive), 1920x1080 [SAR 1:1 DAR 16:9], 23.98 fps, 23.98 tbr, 1k tbn (default)
      Metadata:
        HANDLER_NAME    : VideoHandler
        VENDOR_ID       : [0][0][0][0]
        ENCODER         : Lavc61.19.100 libx265
        BPS             : 1495192
        DURATION        : 00:10:22.204708333
        NUMBER_OF_FRAMES: 14918
        NUMBER_OF_BYTES : 116289337
        _STATISTICS_WRITING_APP: mkvpropedit v66.0.0 ('Josie') 64-bit
        _STATISTICS_WRITING_DATE_UTC: 2025-05-29 11:57:43
        _STATISTICS_TAGS: BPS DURATION NUMBER_OF_FRAMES NUMBER_OF_BYTES
  Stream #0:1(eng): Audio: aac (LC), 48000 Hz, stereo, fltp (default)
      Metadata:
        HANDLER_NAME    : SoundHandler
        VENDOR_ID       : [0][0][0][0]
        ENCODER         : Lavc61.19.100 aac
        BPS             : 192364
        DURATION        : 00:10:23.960000000
        NUMBER_OF_FRAMES: 29249
        NUMBER_OF_BYTES : 15003446
        _STATISTICS_WRITING_APP: mkvpropedit v66.0.0 ('Josie') 64-bit
        _STATISTICS_WRITING_DATE_UTC: 2025-05-29 11:57:43
        _STATISTICS_TAGS: BPS DURATION NUMBER_OF_FRAMES NUMBER_OF_BYTES
Input #1, mov,mp4,m4a,3gp,3g2,mj2, from 'G:\Аниме\Онгоинги\!_36_Осень_2024\JamClub\Ханако, призрак с внеклассными историями [ТВ-2]\JamClub_Houkago_Shounen_Hanako_kun_Zoku_hen_03_1080p.mp4':
  Metadata:
    major_brand     : isom
    minor_version   : 512
    compatible_brands: isomiso2avc1mp41
    encoder         : Lavf60.16.100
  Duration: 00:10:23.98, start: 0.000000, bitrate: 4806 kb/s
  Stream #1:0[0x1](und): Video: h264 (High) (avc1 / 0x31637661), yuv420p(progressive), 1920x1080 [SAR 1:1 DAR 16:9], 4621 kb/s, 23.98 fps, 23.98 tbr, 90k tbn (default)
      Metadata:
        handler_name    : VideoHandler
        vendor_id       : [0][0][0][0]
  Stream #1:1[0x2](eng): Audio: aac (LC) (mp4a / 0x6134706D), 48000 Hz, stereo, fltp, 191 kb/s (default)
      Metadata:
        handler_name    : SoundHandler
        vendor_id       : [0][0][0][0]
Stream mapping:
  Stream #0:0 (hevc) -> settb:default
  Stream #1:0 (h264) -> settb:default
  ssim:default -> Stream #0:0 (wrapped_avframe)
  Stream #0:1 -> #0:1 (aac (native) -> pcm_s16le (native))
Output #0, null, to 'pipe:':
  Metadata:
    COMPATIBLE_BRANDS: isomiso2avc1mp41
    MAJOR_BRAND     : isom
    MINOR_VERSION   : 512
    encoder         : Lavf61.7.100
  Stream #0:0: Video: wrapped_avframe, yuv420p10le(tv, bt709, progressive), 1920x1080 [SAR 1:1 DAR 16:9], q=2-31, 200 kb/s, 23.98 fps, 23.98 tbn
      Metadata:
        encoder         : Lavc61.19.100 wrapped_avframe
  Stream #0:1(eng): Audio: pcm_s16le, 48000 Hz, stereo, s16, 1536 kb/s (default)
      Metadata:
        HANDLER_NAME    : SoundHandler
        VENDOR_ID       : [0][0][0][0]
        _STATISTICS_TAGS: BPS DURATION NUMBER_OF_FRAMES NUMBER_OF_BYTES
        BPS             : 192364
        DURATION        : 00:10:23.960000000
        NUMBER_OF_FRAMES: 29249
        NUMBER_OF_BYTES : 15003446
        _STATISTICS_WRITING_APP: mkvpropedit v66.0.0 ('Josie') 64-bit
        _STATISTICS_WRITING_DATE_UTC: 2025-05-29 11:57:43
        encoder         : Lavc61.19.100 pcm_s16le
frame=  106 fps=0.0 q=-0.0 size=N/A time=00:00:04.42 bitrate=N/A speed=8.49x    frame=  268 fps=257 q=-0.0 size=N/A time=00:00:11.17 bitrate=N/A speed=10.7x    frame=  462 fps=298 q=-0.0 size=N/A time=00:00:19.26 bitrate=N/A speed=12.4x    frame=  705 fps=340 q=-0.0 size=N/A time=00:00:29.40 bitrate=N/A speed=14.2x    frame=  955 fps=370 q=-0.0 size=N/A time=00:00:39.83 bitrate=N/A speed=15.4x    frame= 1213 fps=391 q=-0.0 size=N/A time=00:00:50.59 bitrate=N/A speed=16.3x    frame= 1475 fps=409 q=-0.0 size=N/A time=00:01:01.51 bitrate=N/A speed=  17x    frame= 1711 fps=414 q=-0.0 size=N/A time=00:01:11.36 bitrate=N/A speed=17.3x    frame= 1928 fps=415 q=-0.0 size=N/A time=00:01:20.41 bitrate=N/A speed=17.3x    frame= 2178 fps=422 q=-0.0 size=N/A time=00:01:30.84 bitrate=N/A speed=17.6x    frame= 2419 fps=425 q=-0.0 size=N/A time=00:01:40.89 bitrate=N/A speed=17.7x    frame= 2631 fps=425 q=-0.0 size=N/A time=00:01:49.73 bitrate=N/A speed=17.7x    frame= 2833 fps=422 q=-0.0 size=N/A time=00:01:58.15 bitrate=N/A speed=17.6x    frame= 3055 fps=423 q=-0.0 size=N/A time=00:02:07.41 bitrate=N/A speed=17.6x    frame= 3241 fps=418 q=-0.0 size=N/A time=00:02:15.17 bitrate=N/A speed=17.5x    frame= 3365 fps=408 q=-0.0 size=N/A time=00:02:20.34 bitrate=N/A speed=  17x    frame= 3612 fps=411 q=-0.0 size=N/A time=00:02:30.65 bitrate=N/A speed=17.2x    frame= 3855 fps=415 q=-0.0 size=N/A time=00:02:40.78 bitrate=N/A speed=17.3x    frame= 4115 fps=420 q=-0.0 size=N/A time=00:02:51.62 bitrate=N/A speed=17.5x    frame= 4348 fps=421 q=-0.0 size=N/A time=00:03:01.34 bitrate=N/A speed=17.6x    frame= 4624 fps=426 q=-0.0 size=N/A time=00:03:12.85 bitrate=N/A speed=17.8x    frame= 4860 fps=428 q=-0.0 size=N/A time=00:03:22.70 bitrate=N/A speed=17.8x    frame= 5091 fps=428 q=-0.0 size=N/A time=00:03:32.33 bitrate=N/A speed=17.9x    frame= 5312 fps=429 q=-0.0 size=N/A time=00:03:41.55 bitrate=N/A speed=17.9x    frame= 5549 fps=430 q=-0.0 size=N/A time=00:03:51.43 bitrate=N/A speed=17.9x    frame= 5803 fps=432 q=-0.0 size=N/A time=00:04:02.03 bitrate=N/A speed=  18x    frame= 6037 fps=433 q=-0.0 size=N/A time=00:04:11.79 bitrate=N/A speed=18.1x    frame= 6264 fps=433 q=-0.0 size=N/A time=00:04:21.26 bitrate=N/A speed=18.1x    frame= 6515 fps=435 q=-0.0 size=N/A time=00:04:31.72 bitrate=N/A speed=18.1x    frame= 6799 fps=439 q=-0.0 size=N/A time=00:04:43.57 bitrate=N/A speed=18.3x    frame= 7029 fps=439 q=-0.0 size=N/A time=00:04:53.16 bitrate=N/A speed=18.3x    frame= 7240 fps=438 q=-0.0 size=N/A time=00:05:01.96 bitrate=N/A speed=18.3x    frame= 7495 fps=440 q=-0.0 size=N/A time=00:05:12.60 bitrate=N/A speed=18.3x    frame= 7710 fps=439 q=-0.0 size=N/A time=00:05:21.57 bitrate=N/A speed=18.3x    frame= 7949 fps=440 q=-0.0 size=N/A time=00:05:31.53 bitrate=N/A speed=18.3x    frame= 8180 fps=440 q=-0.0 size=N/A time=00:05:41.17 bitrate=N/A speed=18.4x    frame= 8431 fps=441 q=-0.0 size=N/A time=00:05:51.64 bitrate=N/A speed=18.4x    frame= 8672 fps=442 q=-0.0 size=N/A time=00:06:01.69 bitrate=N/A speed=18.4x    frame= 8942 fps=444 q=-0.0 size=N/A time=00:06:12.95 bitrate=N/A speed=18.5x    frame= 9171 fps=444 q=-0.0 size=N/A time=00:06:22.50 bitrate=N/A speed=18.5x    frame= 9434 fps=446 q=-0.0 size=N/A time=00:06:33.47 bitrate=N/A speed=18.6x    frame= 9676 fps=446 q=-0.0 size=N/A time=00:06:43.56 bitrate=N/A speed=18.6x    frame= 9902 fps=446 q=-0.0 size=N/A time=00:06:52.99 bitrate=N/A speed=18.6x    frame=10168 fps=448 q=-0.0 size=N/A time=00:07:04.09 bitrate=N/A speed=18.7x    frame=10419 fps=449 q=-0.0 size=N/A time=00:07:14.55 bitrate=N/A speed=18.7x    frame=10686 fps=450 q=-0.0 size=N/A time=00:07:25.69 bitrate=N/A speed=18.8x    frame=10922 fps=450 q=-0.0 size=N/A time=00:07:35.53 bitrate=N/A speed=18.8x    frame=11172 fps=451 q=-0.0 size=N/A time=00:07:45.96 bitrate=N/A speed=18.8x    frame=11419 fps=451 q=-0.0 size=N/A time=00:07:56.26 bitrate=N/A speed=18.8x    frame=11649 fps=451 q=-0.0 size=N/A time=00:08:05.86 bitrate=N/A speed=18.8x    frame=11903 fps=452 q=-0.0 size=N/A time=00:08:16.45 bitrate=N/A speed=18.9x    frame=12154 fps=453 q=-0.0 size=N/A time=00:08:26.92 bitrate=N/A speed=18.9x    frame=12424 fps=454 q=-0.0 size=N/A time=00:08:38.18 bitrate=N/A speed=18.9x    frame=12624 fps=453 q=-0.0 size=N/A time=00:08:46.52 bitrate=N/A speed=18.9x    frame=12827 fps=452 q=-0.0 size=N/A time=00:08:54.99 bitrate=N/A speed=18.9x    frame=12993 fps=450 q=-0.0 size=N/A time=00:09:01.91 bitrate=N/A speed=18.8x    frame=13204 fps=449 q=-0.0 size=N/A time=00:09:10.71 bitrate=N/A speed=18.7x    frame=13364 fps=447 q=-0.0 size=N/A time=00:09:17.39 bitrate=N/A speed=18.6x    frame=13545 fps=445 q=-0.0 size=N/A time=00:09:24.93 bitrate=N/A speed=18.6x    frame=13756 fps=444 q=-0.0 size=N/A time=00:09:33.73 bitrate=N/A speed=18.5x    frame=13953 fps=443 q=-0.0 size=N/A time=00:09:41.95 bitrate=N/A speed=18.5x    frame=14141 fps=442 q=-0.0 size=N/A time=00:09:49.79 bitrate=N/A speed=18.4x    frame=14343 fps=441 q=-0.0 size=N/A time=00:09:58.22 bitrate=N/A speed=18.4x    frame=14517 fps=440 q=-0.0 size=N/A time=00:10:05.47 bitrate=N/A speed=18.3x    frame=14718 fps=439 q=-0.0 size=N/A time=00:10:13.86 bitrate=N/A speed=18.3x    [Parsed_ssim_10 @ 000001940e235d80] SSIM Y:0.992905 (21.490606) U:0.993180 (21.662381) V:0.992982 (21.537559) All:0.992964 (21.526608)
[out#0/null @ 000001940d7d4b40] video:6410KiB audio:116996KiB subtitle:0KiB other streams:0KiB global headers:0KiB muxing overhead: unknown
frame=14918 fps=440 q=-0.0 Lsize=N/A time=00:10:22.20 bitrate=N/A speed=18.4x    
